<svg id="svg" version="1.1" xmlns="http://www.w3.org/2000/svg" viewBox="0, 0, 400,400">
    <g id="svgg">
        <path id="path0"
              d="M113.200 103.432 C 111.770 104.157,110.418 104.896,110.196 105.075 C 109.974 105.254,108.804 105.897,107.596 106.504 C 104.180 108.221,99.460 110.819,94.000 113.987 C 91.250 115.583,86.840 118.083,84.200 119.544 C 78.522 122.686,75.933 125.088,73.974 129.034 L 72.600 131.800 72.600 200.000 L 72.600 268.200 73.881 270.800 C 75.928 274.954,77.878 276.934,82.502 279.552 C 83.326 280.018,84.675 280.790,85.500 281.267 C 86.325 281.745,88.170 282.792,89.600 283.595 C 91.030 284.399,96.160 287.362,101.000 290.182 C 105.840 293.001,110.340 295.619,111.000 295.999 C 111.660 296.379,114.450 298.004,117.200 299.609 C 119.950 301.215,127.600 305.618,134.200 309.393 C 140.800 313.169,150.160 318.565,155.000 321.385 C 159.840 324.205,164.340 326.826,165.000 327.208 C 167.098 328.425,184.534 338.438,186.200 339.383 C 187.080 339.882,188.962 340.975,190.382 341.812 C 196.105 345.186,202.912 345.572,207.785 342.799 C 208.453 342.419,212.060 340.348,215.800 338.196 C 219.540 336.045,224.400 333.263,226.600 332.014 C 228.800 330.766,231.275 329.352,232.100 328.872 C 232.925 328.392,234.185 327.664,234.900 327.253 C 235.615 326.843,239.530 324.567,243.600 322.196 C 250.536 318.156,264.471 310.091,267.600 308.305 C 272.352 305.592,283.512 299.146,288.800 296.059 C 292.210 294.068,300.755 289.145,307.789 285.119 C 322.040 276.963,323.694 275.678,326.015 270.966 L 327.377 268.200 327.511 256.400 C 327.585 249.910,327.490 240.687,327.301 235.906 L 326.958 227.211 325.379 225.787 C 324.510 225.004,323.318 224.261,322.728 224.137 C 322.138 224.013,321.252 223.481,320.758 222.956 C 320.239 222.403,319.402 222.000,318.773 222.000 C 318.175 222.000,317.582 221.730,317.455 221.400 C 317.176 220.672,316.156 220.609,315.833 221.300 C 315.647 221.700,315.553 221.700,315.367 221.300 C 315.238 221.025,314.788 220.800,314.367 220.800 C 313.814 220.800,313.600 220.519,313.600 219.790 C 313.600 219.105,313.305 218.668,312.684 218.432 C 312.180 218.240,311.527 217.795,311.235 217.442 C 310.942 217.089,310.488 216.800,310.226 216.800 C 309.964 216.800,309.232 216.260,308.600 215.600 C 307.902 214.871,307.043 214.400,306.413 214.400 C 305.835 214.400,305.121 214.046,304.800 213.600 C 304.375 213.011,303.765 212.800,302.483 212.800 C 300.685 212.800,299.600 212.134,299.600 211.029 C 299.600 210.679,299.264 210.400,298.843 210.400 C 298.426 210.400,297.982 210.130,297.855 209.800 C 297.729 209.470,297.370 209.200,297.059 209.200 C 296.748 209.200,296.399 208.840,296.284 208.400 C 296.169 207.960,295.808 207.600,295.483 207.600 C 294.560 207.600,294.357 211.331,294.065 233.681 C 293.900 246.313,293.649 254.108,293.400 254.352 C 293.180 254.567,290.210 256.345,286.800 258.304 C 283.390 260.263,276.730 264.114,272.000 266.862 C 267.270 269.609,262.410 272.403,261.200 273.070 C 259.990 273.737,258.325 274.669,257.500 275.141 C 256.675 275.613,255.415 276.335,254.700 276.744 C 253.985 277.153,250.070 279.431,246.000 281.808 C 236.173 287.545,207.578 304.000,207.435 304.000 C 207.374 304.000,205.810 304.900,203.961 306.000 C 202.113 307.100,200.483 308.000,200.340 308.000 C 200.196 308.000,199.974 272.855,199.844 229.900 C 199.715 186.945,199.607 151.215,199.605 150.500 C 199.599 149.122,199.055 148.760,198.634 149.854 C 198.404 150.454,198.324 150.456,197.678 149.870 C 197.290 149.519,195.898 148.664,194.586 147.970 C 193.274 147.277,191.930 146.481,191.600 146.201 C 190.353 145.145,187.435 143.894,187.284 144.349 C 187.040 145.081,186.400 144.864,186.400 144.049 C 186.400 142.918,185.542 142.419,182.949 142.041 C 181.657 141.852,180.825 141.676,181.100 141.649 C 182.036 141.557,181.604 140.469,180.424 139.946 C 179.777 139.660,179.164 139.105,179.061 138.713 C 178.943 138.260,178.496 138.000,177.837 138.000 C 177.267 138.000,176.800 137.820,176.800 137.600 C 176.800 137.380,176.192 137.200,175.449 137.200 C 174.324 137.200,174.014 136.998,173.600 136.000 C 173.297 135.269,172.809 134.800,172.351 134.800 C 171.938 134.800,171.600 134.616,171.600 134.391 C 171.600 134.167,171.105 133.765,170.500 133.500 C 169.895 133.234,169.256 132.788,169.080 132.508 C 168.904 132.229,168.331 132.000,167.807 132.000 C 167.205 132.000,166.760 131.705,166.600 131.200 C 166.440 130.696,165.995 130.400,165.397 130.400 C 164.874 130.400,164.336 130.220,164.200 130.000 C 163.818 129.382,162.800 129.527,162.800 130.200 C 162.800 130.530,162.620 130.800,162.400 130.800 C 162.180 130.800,162.000 130.440,162.000 130.000 C 162.000 129.467,161.733 129.200,161.200 129.200 C 160.667 129.200,160.400 128.933,160.400 128.400 C 160.400 127.867,160.133 127.600,159.600 127.600 C 159.160 127.600,158.800 127.437,158.800 127.237 C 158.800 126.650,152.155 122.400,151.238 122.400 C 150.777 122.400,149.996 121.995,149.502 121.500 C 149.009 121.005,147.974 120.265,147.202 119.856 C 146.431 119.447,145.506 118.854,145.148 118.538 C 144.511 117.976,142.612 116.898,140.200 115.730 C 139.540 115.410,138.661 114.964,138.246 114.737 C 137.693 114.435,137.393 114.469,137.116 114.863 C 136.822 115.282,136.695 115.290,136.536 114.900 C 136.425 114.625,135.988 114.400,135.567 114.400 C 135.083 114.400,134.800 114.122,134.800 113.649 C 134.800 112.689,133.550 111.563,133.302 112.300 C 132.982 113.249,132.400 112.797,132.400 111.600 C 132.400 110.611,132.237 110.400,131.470 110.400 C 130.958 110.400,130.105 109.938,129.575 109.373 C 128.787 108.534,128.372 108.391,127.305 108.591 C 126.206 108.798,126.000 108.717,126.000 108.080 C 126.000 106.935,122.793 104.622,122.485 105.546 C 122.208 106.375,120.800 106.064,120.800 105.174 C 120.800 103.521,120.066 102.800,118.386 102.800 C 117.514 102.800,116.800 102.620,116.800 102.400 C 116.800 101.779,116.015 102.004,113.200 103.432 "
              stroke="none" fill="#000000" fill-rule="evenodd"></path>
        <path id="path1"
              d="M196.908 55.599 C 193.931 56.226,193.082 56.674,174.000 67.692 C 171.910 68.898,169.390 70.339,168.400 70.893 C 165.868 72.309,158.556 76.555,147.664 82.933 C 142.530 85.940,138.262 88.400,138.182 88.400 C 138.101 88.400,137.082 88.965,135.918 89.656 C 134.753 90.347,133.215 91.247,132.500 91.656 C 131.785 92.065,130.525 92.790,129.700 93.267 C 128.875 93.745,127.030 94.797,125.600 95.605 C 112.165 103.205,106.097 107.153,114.172 103.042 C 115.798 102.214,116.595 101.986,116.706 102.317 C 116.795 102.584,117.562 102.800,118.419 102.800 C 120.064 102.800,120.800 103.533,120.800 105.174 C 120.800 106.064,122.208 106.375,122.485 105.546 C 122.793 104.622,126.000 106.935,126.000 108.080 C 126.000 108.717,126.206 108.798,127.305 108.591 C 128.372 108.391,128.787 108.534,129.575 109.373 C 130.105 109.938,130.958 110.400,131.470 110.400 C 132.237 110.400,132.400 110.611,132.400 111.600 C 132.400 112.797,132.982 113.249,133.302 112.300 C 133.550 111.563,134.800 112.689,134.800 113.649 C 134.800 114.122,135.083 114.400,135.567 114.400 C 135.988 114.400,136.425 114.625,136.536 114.900 C 136.698 115.298,136.812 115.297,137.097 114.894 C 137.454 114.389,138.614 114.750,141.000 116.106 C 141.440 116.357,142.406 116.877,143.148 117.262 C 143.889 117.647,144.789 118.221,145.148 118.538 C 145.506 118.854,146.431 119.447,147.202 119.856 C 147.974 120.265,149.009 121.005,149.502 121.500 C 149.996 121.995,150.777 122.400,151.238 122.400 C 152.155 122.400,158.800 126.650,158.800 127.237 C 158.800 127.437,159.160 127.600,159.600 127.600 C 160.133 127.600,160.400 127.867,160.400 128.400 C 160.400 128.933,160.667 129.200,161.200 129.200 C 161.733 129.200,162.000 129.467,162.000 130.000 C 162.000 130.440,162.180 130.800,162.400 130.800 C 162.620 130.800,162.800 130.530,162.800 130.200 C 162.800 129.527,163.818 129.382,164.200 130.000 C 164.336 130.220,164.874 130.400,165.397 130.400 C 165.995 130.400,166.440 130.696,166.600 131.200 C 166.760 131.705,167.205 132.000,167.807 132.000 C 168.331 132.000,168.904 132.229,169.080 132.508 C 169.256 132.788,169.895 133.234,170.500 133.500 C 171.105 133.765,171.600 134.167,171.600 134.391 C 171.600 134.616,171.938 134.800,172.351 134.800 C 172.809 134.800,173.297 135.269,173.600 136.000 C 174.014 136.998,174.324 137.200,175.449 137.200 C 176.192 137.200,176.800 137.380,176.800 137.600 C 176.800 137.820,177.267 138.000,177.837 138.000 C 178.496 138.000,178.943 138.260,179.061 138.713 C 179.164 139.105,179.777 139.660,180.424 139.946 C 181.604 140.469,182.036 141.557,181.100 141.649 C 180.825 141.676,181.657 141.852,182.949 142.041 C 185.542 142.419,186.400 142.918,186.400 144.049 C 186.400 144.864,187.040 145.081,187.284 144.349 C 187.435 143.894,190.353 145.145,191.600 146.201 C 191.930 146.481,193.274 147.277,194.586 147.970 C 195.898 148.664,197.290 149.519,197.678 149.870 C 198.324 150.456,198.404 150.454,198.634 149.854 C 199.339 148.019,199.537 150.121,199.580 159.881 C 199.606 165.755,199.711 170.645,199.814 170.747 C 199.916 170.850,200.000 153.173,200.000 131.467 C 200.000 109.760,200.085 92.000,200.188 92.000 C 200.389 92.000,201.600 92.673,207.500 96.062 C 208.325 96.535,211.250 98.184,214.000 99.725 C 216.750 101.265,220.260 103.278,221.800 104.197 C 223.340 105.116,227.660 107.638,231.400 109.801 C 235.140 111.965,241.800 115.833,246.200 118.398 C 250.600 120.963,255.190 123.609,256.400 124.277 C 257.610 124.945,262.740 127.884,267.800 130.808 C 272.860 133.732,278.620 137.058,280.600 138.199 C 289.004 143.044,291.472 144.524,292.700 145.455 L 294.000 146.441 294.050 180.920 C 294.078 199.884,294.244 214.590,294.420 213.600 C 294.597 212.610,294.754 210.855,294.770 209.700 C 294.801 207.508,295.822 206.632,296.284 208.400 C 296.399 208.840,296.748 209.200,297.059 209.200 C 297.370 209.200,297.729 209.470,297.855 209.800 C 297.982 210.130,298.426 210.400,298.843 210.400 C 299.264 210.400,299.600 210.679,299.600 211.029 C 299.600 212.134,300.685 212.800,302.483 212.800 C 303.765 212.800,304.375 213.011,304.800 213.600 C 305.121 214.046,305.835 214.400,306.413 214.400 C 307.043 214.400,307.902 214.871,308.600 215.600 C 309.232 216.260,309.964 216.800,310.226 216.800 C 310.488 216.800,310.942 217.089,311.235 217.442 C 311.527 217.795,312.180 218.240,312.684 218.432 C 313.305 218.668,313.600 219.105,313.600 219.790 C 313.600 220.519,313.814 220.800,314.367 220.800 C 314.788 220.800,315.238 221.025,315.367 221.300 C 315.553 221.700,315.647 221.700,315.833 221.300 C 316.156 220.609,317.176 220.672,317.455 221.400 C 317.582 221.730,318.175 222.000,318.773 222.000 C 319.402 222.000,320.239 222.403,320.758 222.956 C 321.252 223.481,322.138 224.013,322.728 224.137 C 323.318 224.261,324.520 225.012,325.400 225.805 L 327.000 227.248 327.233 233.524 C 327.361 236.976,327.451 215.500,327.433 185.800 L 327.400 131.800 326.016 129.000 C 324.112 125.147,321.511 122.715,315.995 119.629 C 313.468 118.215,307.530 114.815,302.800 112.075 C 298.070 109.334,293.602 106.752,292.871 106.337 C 292.141 105.921,288.811 103.989,285.471 102.043 C 278.626 98.053,269.502 92.801,266.800 91.295 C 263.803 89.625,242.329 77.181,240.400 75.997 C 234.641 72.460,207.114 56.938,205.543 56.342 C 203.247 55.469,199.183 55.120,196.908 55.599 M108.700 105.429 C 107.249 106.216,107.299 106.444,108.800 105.878 C 109.460 105.628,110.000 105.284,110.000 105.112 C 110.000 104.719,110.016 104.715,108.700 105.429 "
              stroke="none" fill="#000000" fill-rule="evenodd"></path>
        <path id="path2"
              d="M0.000 200.000 L 0.000 400.000 200.000 400.000 L 400.000 400.000 400.000 200.000 L 400.000 0.000 200.000 0.000 L 0.000 0.000 0.000 200.000 M203.027 54.833 C 206.089 55.391,207.382 56.036,218.600 62.606 C 224.845 66.263,241.272 75.751,244.400 77.507 C 245.390 78.063,248.540 79.866,251.400 81.515 C 256.227 84.297,262.506 87.915,265.447 89.609 C 266.132 90.003,267.906 91.063,269.388 91.963 C 270.869 92.863,272.171 93.600,272.279 93.600 C 272.388 93.600,272.954 93.939,273.538 94.353 C 274.555 95.074,275.623 95.702,279.600 97.915 C 283.536 100.104,296.437 107.499,308.200 114.307 C 324.139 123.533,326.351 125.589,327.851 132.574 C 328.645 136.272,328.613 264.389,327.817 267.720 C 326.702 272.387,324.233 275.895,320.154 278.610 C 317.387 280.451,287.500 297.791,280.000 301.907 C 278.570 302.692,276.257 304.024,274.859 304.867 C 273.462 305.710,272.261 306.400,272.191 306.400 C 272.121 306.400,270.475 307.364,268.532 308.543 C 266.589 309.722,261.940 312.443,258.200 314.590 C 254.460 316.736,250.590 318.991,249.600 319.600 C 247.854 320.674,246.181 321.618,241.600 324.116 C 240.390 324.775,239.220 325.450,239.000 325.615 C 238.578 325.931,236.835 326.927,233.200 328.930 C 231.990 329.596,229.872 330.830,228.493 331.671 C 227.114 332.512,225.914 333.200,225.825 333.200 C 225.737 333.200,224.075 334.164,222.132 335.343 C 199.792 348.897,200.852 348.896,177.800 335.396 C 171.860 331.918,166.010 328.535,164.800 327.878 C 163.590 327.222,162.420 326.550,162.200 326.385 C 161.809 326.092,160.422 325.297,156.800 323.289 C 155.810 322.740,153.920 321.661,152.600 320.891 C 151.280 320.121,149.660 319.180,149.000 318.800 C 147.377 317.865,146.005 317.067,139.000 312.982 C 135.700 311.057,132.442 309.167,131.760 308.781 C 131.077 308.396,129.187 307.275,127.560 306.290 C 125.932 305.305,122.890 303.545,120.800 302.379 C 114.680 298.965,112.246 297.577,104.000 292.800 C 99.710 290.315,94.580 287.344,92.600 286.198 C 90.620 285.053,87.380 283.166,85.400 282.006 C 83.420 280.846,81.186 279.547,80.436 279.119 C 76.456 276.850,73.048 272.041,72.046 267.280 C 71.419 264.299,71.414 135.732,72.041 132.720 C 72.987 128.174,75.813 124.064,79.820 121.404 C 82.542 119.597,113.311 101.755,120.400 97.872 C 121.610 97.210,123.743 95.977,125.141 95.134 C 126.538 94.290,127.739 93.600,127.809 93.600 C 127.879 93.600,129.525 92.636,131.468 91.457 C 133.411 90.278,138.060 87.557,141.800 85.410 C 145.540 83.264,149.410 81.009,150.400 80.400 C 151.390 79.791,153.010 78.847,154.000 78.303 C 155.808 77.309,157.516 76.341,160.300 74.734 C 161.125 74.258,163.150 73.114,164.800 72.192 C 166.450 71.269,169.780 69.352,172.200 67.931 C 174.620 66.510,178.580 64.200,181.000 62.798 C 183.420 61.396,186.840 59.397,188.600 58.356 C 194.662 54.770,198.091 53.933,203.027 54.833 M200.341 94.310 C 200.263 95.130,200.290 143.368,200.400 201.507 L 200.600 307.214 210.400 301.560 C 215.790 298.450,220.740 295.590,221.400 295.204 C 222.060 294.818,224.220 293.554,226.200 292.394 C 231.692 289.177,242.732 282.834,245.200 281.477 C 246.410 280.812,248.543 279.577,249.941 278.734 C 251.338 277.890,252.556 277.200,252.648 277.200 C 252.739 277.200,254.116 276.415,255.707 275.455 C 258.686 273.658,274.399 264.512,277.600 262.712 C 285.914 258.036,292.284 254.231,292.700 253.693 C 293.094 253.184,293.200 241.777,293.200 199.751 L 293.200 146.454 292.038 145.627 C 291.399 145.172,290.777 144.800,290.656 144.800 C 290.534 144.800,289.482 144.235,288.318 143.544 C 286.256 142.322,284.972 141.578,282.300 140.062 C 278.831 138.094,267.015 131.261,264.000 129.480 C 256.275 124.918,251.865 122.360,248.800 120.666 C 247.590 119.998,242.730 117.212,238.000 114.475 C 226.838 108.017,226.905 108.056,224.800 106.890 C 223.810 106.342,222.820 105.760,222.600 105.598 C 222.380 105.435,219.770 103.901,216.800 102.187 C 213.830 100.474,210.320 98.449,209.000 97.687 C 207.680 96.925,205.970 95.939,205.200 95.495 C 204.430 95.050,203.053 94.267,202.141 93.754 L 200.482 92.820 200.341 94.310 "
              stroke="none" fill="#FFF" fill-rule="evenodd"></path>
        <path id="path3"
              d="M108.476 105.083 C 107.528 105.635,106.826 106.159,106.916 106.249 C 107.092 106.426,110.800 104.438,110.800 104.166 C 110.800 103.846,110.185 104.089,108.476 105.083 M102.000 108.849 C 99.690 110.186,97.080 111.686,96.200 112.183 C 76.247 123.444,74.777 124.610,72.728 130.800 L 71.867 133.400 71.693 198.960 C 71.561 248.798,71.634 265.106,71.998 266.960 C 72.974 271.942,76.332 276.779,80.436 279.119 C 81.186 279.547,83.420 280.846,85.400 282.006 C 87.380 283.166,90.620 285.053,92.600 286.198 C 94.580 287.344,99.710 290.315,104.000 292.800 C 112.246 297.577,114.680 298.965,120.800 302.379 C 122.890 303.545,125.932 305.305,127.560 306.290 C 129.187 307.275,131.077 308.396,131.760 308.781 C 132.442 309.167,135.700 311.057,139.000 312.982 C 146.005 317.067,147.377 317.865,149.000 318.800 C 149.660 319.180,151.280 320.121,152.600 320.891 C 153.920 321.661,155.810 322.740,156.800 323.289 C 160.422 325.297,161.809 326.092,162.200 326.385 C 162.420 326.550,163.590 327.222,164.800 327.878 C 166.010 328.535,171.860 331.918,177.800 335.396 C 200.852 348.896,199.792 348.897,222.132 335.343 C 224.075 334.164,225.737 333.200,225.825 333.200 C 225.914 333.200,227.114 332.512,228.493 331.671 C 229.872 330.830,231.990 329.596,233.200 328.930 C 236.835 326.927,238.578 325.931,239.000 325.615 C 239.220 325.450,240.390 324.776,241.600 324.117 C 244.337 322.626,252.101 318.145,262.800 311.882 C 267.310 309.242,271.630 306.729,272.400 306.298 C 273.170 305.867,273.980 305.373,274.200 305.200 C 274.581 304.900,275.524 304.356,279.600 302.083 C 283.754 299.767,297.685 291.715,301.200 289.598 C 303.290 288.340,308.623 285.213,313.051 282.651 C 322.318 277.289,324.224 275.649,326.360 271.200 L 327.800 268.200 327.817 235.400 L 327.833 202.600 327.617 235.400 L 327.400 268.200 326.026 270.966 C 323.683 275.685,322.024 276.972,307.789 285.119 C 300.755 289.145,292.210 294.068,288.800 296.059 C 283.512 299.146,272.352 305.592,267.600 308.305 C 264.471 310.091,250.536 318.156,243.600 322.196 C 239.530 324.567,235.615 326.843,234.900 327.253 C 234.185 327.664,232.925 328.392,232.100 328.872 C 231.275 329.352,228.800 330.766,226.600 332.014 C 224.400 333.263,219.540 336.045,215.800 338.196 C 212.060 340.348,208.453 342.419,207.785 342.799 C 202.912 345.572,196.105 345.186,190.382 341.812 C 188.962 340.975,187.080 339.882,186.200 339.383 C 184.534 338.438,167.098 328.425,165.000 327.208 C 164.340 326.826,159.840 324.205,155.000 321.385 C 150.160 318.565,140.800 313.169,134.200 309.393 C 127.600 305.618,119.950 301.215,117.200 299.609 C 114.450 298.004,111.660 296.379,111.000 295.999 C 110.340 295.619,105.840 293.001,101.000 290.182 C 96.160 287.362,91.030 284.399,89.600 283.595 C 88.170 282.792,86.325 281.745,85.500 281.267 C 84.675 280.790,83.326 280.018,82.502 279.552 C 77.878 276.934,75.928 274.954,73.881 270.800 L 72.600 268.200 72.600 200.000 L 72.600 131.800 73.974 129.034 C 75.933 125.088,78.522 122.686,84.200 119.544 C 86.840 118.083,91.250 115.583,94.000 113.988 C 96.750 112.393,99.540 110.778,100.200 110.398 C 104.034 108.197,106.400 106.739,106.400 106.581 C 106.400 106.299,106.440 106.279,102.000 108.849 M293.600 222.123 L 293.400 253.646 292.466 254.350 C 291.952 254.738,290.872 255.395,290.066 255.810 C 288.564 256.585,286.100 257.995,268.400 268.215 C 255.577 275.618,255.758 275.514,253.600 276.714 C 252.610 277.264,250.090 278.702,248.000 279.909 C 245.910 281.116,243.390 282.556,242.400 283.110 C 238.355 285.371,233.891 287.929,228.400 291.133 C 225.210 292.995,222.060 294.830,221.400 295.211 C 220.740 295.593,215.790 298.451,210.400 301.563 L 200.600 307.221 200.357 305.710 C 200.114 304.203,200.113 304.204,200.057 306.100 C 199.987 308.433,199.866 308.436,203.961 306.000 C 205.810 304.900,207.374 304.000,207.435 304.000 C 207.578 304.000,236.173 287.545,246.000 281.808 C 250.070 279.431,253.985 277.153,254.700 276.744 C 255.415 276.335,256.675 275.613,257.500 275.141 C 258.325 274.669,259.990 273.736,261.200 273.069 C 262.410 272.402,267.090 269.712,271.600 267.092 C 276.110 264.471,282.831 260.589,286.536 258.464 C 290.241 256.339,293.437 254.295,293.639 253.922 C 293.854 253.523,293.963 240.340,293.902 221.922 L 293.800 190.600 293.600 222.123 M200.166 296.000 C 200.166 300.070,200.225 301.735,200.298 299.700 C 200.371 297.665,200.371 294.335,200.298 292.300 C 200.225 290.265,200.166 291.930,200.166 296.000 "
              stroke="none" fill="#000000" fill-rule="evenodd"></path>
        <path id="path4"
              d="M196.802 54.840 C 194.244 55.340,192.259 56.192,188.600 58.356 C 186.840 59.397,183.420 61.396,181.000 62.798 C 178.580 64.200,174.620 66.510,172.200 67.931 C 169.780 69.352,166.450 71.269,164.800 72.192 C 163.150 73.114,161.125 74.258,160.300 74.734 C 157.516 76.341,155.808 77.309,154.000 78.303 C 153.010 78.847,151.390 79.791,150.400 80.400 C 149.410 81.009,145.540 83.264,141.800 85.410 C 138.060 87.557,133.411 90.278,131.468 91.457 C 129.525 92.636,127.879 93.600,127.809 93.600 C 127.739 93.600,126.538 94.290,125.141 95.134 C 123.743 95.977,121.610 97.211,120.400 97.875 C 117.952 99.220,99.463 109.784,97.083 111.198 C 96.249 111.694,95.634 112.168,95.718 112.251 C 95.801 112.335,98.464 110.906,101.635 109.076 C 104.806 107.247,108.390 105.202,109.600 104.533 C 110.810 103.864,112.610 102.858,113.600 102.298 C 114.590 101.738,119.249 99.101,123.953 96.440 C 128.657 93.778,132.589 91.600,132.691 91.600 C 132.793 91.600,133.354 91.268,133.938 90.862 C 134.522 90.455,136.260 89.438,137.800 88.600 C 139.340 87.762,144.290 84.914,148.800 82.271 C 158.409 76.640,165.873 72.307,168.400 70.893 C 169.390 70.339,171.910 68.898,174.000 67.692 C 202.025 51.511,197.976 51.653,223.009 65.973 C 231.584 70.878,239.410 75.389,240.400 75.997 C 242.329 77.181,263.803 89.625,266.800 91.295 C 269.502 92.801,278.626 98.053,285.471 102.043 C 288.811 103.989,292.141 105.921,292.871 106.337 C 293.602 106.752,298.070 109.334,302.800 112.075 C 307.530 114.815,313.468 118.215,315.995 119.629 C 321.523 122.722,324.117 125.150,326.007 129.000 L 327.381 131.800 327.683 181.600 C 327.850 208.990,328.036 239.230,328.097 248.800 C 328.158 258.370,328.245 236.680,328.290 200.600 C 328.378 130.239,328.435 132.401,326.365 128.181 C 324.418 124.213,321.616 122.073,308.200 114.307 C 296.437 107.499,283.536 100.104,279.600 97.915 C 275.623 95.702,274.555 95.074,273.538 94.353 C 272.954 93.939,272.388 93.600,272.279 93.600 C 272.171 93.600,270.869 92.863,269.388 91.963 C 267.906 91.063,266.132 90.003,265.447 89.609 C 262.506 87.915,256.227 84.297,251.400 81.515 C 248.540 79.866,245.390 78.063,244.400 77.507 C 241.272 75.751,224.845 66.263,218.600 62.606 C 207.382 56.036,206.089 55.391,203.027 54.833 C 200.330 54.341,199.343 54.342,196.802 54.840 M200.067 93.900 C 200.129 95.640,200.148 95.674,200.291 94.301 L 200.448 92.801 202.124 93.744 C 203.046 94.263,204.430 95.050,205.200 95.495 C 205.970 95.939,207.680 96.925,209.000 97.687 C 210.320 98.449,213.830 100.474,216.800 102.187 C 219.770 103.901,222.380 105.435,222.600 105.598 C 222.820 105.760,223.810 106.342,224.800 106.890 C 226.905 108.056,226.838 108.017,238.000 114.475 C 242.730 117.212,247.590 119.998,248.800 120.666 C 251.865 122.360,256.275 124.918,264.000 129.480 C 267.015 131.261,278.831 138.094,282.300 140.062 C 284.972 141.578,286.256 142.322,288.318 143.544 C 289.482 144.235,290.534 144.800,290.656 144.800 C 290.777 144.800,291.399 145.172,292.038 145.627 L 293.200 146.454 293.268 198.727 L 293.336 251.000 293.700 198.800 L 294.065 146.600 292.865 145.600 C 292.204 145.050,289.985 143.628,287.932 142.441 C 285.879 141.253,282.580 139.346,280.600 138.203 C 278.620 137.059,272.860 133.732,267.800 130.808 C 262.740 127.884,257.610 124.945,256.400 124.277 C 255.190 123.609,250.600 120.963,246.200 118.398 C 241.800 115.833,235.140 111.965,231.400 109.801 C 227.660 107.638,223.340 105.116,221.800 104.197 C 220.260 103.278,216.750 101.265,214.000 99.725 C 211.250 98.184,208.325 96.535,207.500 96.062 C 199.048 91.207,199.982 91.478,200.067 93.900 M200.197 192.400 C 200.197 245.530,200.243 267.265,200.300 240.700 C 200.357 214.135,200.357 170.665,200.300 144.100 C 200.243 117.535,200.197 139.270,200.197 192.400 M91.726 114.316 C 89.926 115.360,88.306 116.370,88.126 116.562 C 87.726 116.988,93.086 114.063,94.431 113.121 C 96.200 111.881,95.042 112.393,91.726 114.316 M84.300 118.621 C 82.595 119.614,81.200 120.526,81.200 120.646 C 81.200 120.767,81.785 120.514,82.500 120.085 C 83.215 119.656,84.655 118.815,85.700 118.215 C 86.745 117.615,87.600 117.051,87.600 116.962 C 87.600 116.702,87.547 116.729,84.300 118.621 M71.767 141.600 C 71.767 145.890,71.826 147.645,71.898 145.500 C 71.970 143.355,71.970 139.845,71.898 137.700 C 71.826 135.555,71.767 137.310,71.767 141.600 "
              stroke="none" fill="#000000" fill-rule="evenodd"></path>
    </g>
</svg>
